Coordinates
version=1
nRows=11
nColumns=36
inDegrees=yes

Units are S.I. units (second, meters, Newtons, ...)
If the header above contains a line with 'inDegrees', this indicates whether rotational values are in degrees (yes) or radians (no).

endheader
time	pelvis_tilt	pelvis_list	pelvis_rotation	pelvis_tx	pelvis_ty	pelvis_tz	hip_flexion_r	hip_adduction_r	hip_rotation_r	knee_angle_r	knee_angle_r_beta	ankle_angle_r	subtalar_angle_r	mtp_angle_r	hip_flexion_l	hip_adduction_l	hip_rotation_l	knee_angle_l	knee_angle_l_beta	ankle_angle_l	subtalar_angle_l	mtp_angle_l	lumbar_extension	lumbar_bending	lumbar_rotation	arm_flex_r	arm_add_r	arm_rot_r	elbow_flex_r	pro_sup_r	arm_flex_l	arm_add_l	arm_rot_l	elbow_flex_l	pro_sup_l
      3.98333330	    -17.07977518	     15.43636343	     18.61604855	      0.66499304	      0.74608880	     -0.29537799	     90.77177973	    -27.02755107	     14.02444651	     41.07764357	      0.71694013	    -11.64495949	      3.54849511	     -7.49999987	     72.14985994	     21.84541413	    -13.23047085	     85.22782835	      1.48750622	     26.13989755	    -10.95810893	     -7.49999987	    -42.88700287	     -8.66265294	    -26.03404278	     87.57471297	     -1.75208655	     48.14263813	    122.07921428	     53.82594448	    102.99155594	    -25.44739122	     71.22488133	    135.23798809	     56.81926143
      4.00000000	    -17.22847992	     15.53790506	     18.07676504	      0.66988338	      0.75077275	     -0.29115772	     90.20479212	    -26.96546318	     13.57471658	     40.24306304	      0.70237395	    -11.21877197	      4.48477808	     -7.49999987	     71.23629542	     21.81146959	    -12.91261242	     84.25329750	      1.47049745	     26.75839360	    -10.03515430	     -7.49999987	    -42.29925698	     -9.33864734	    -25.86235827	     85.64320358	     -1.52771926	     47.19274866	    121.15147885	     53.63030728	    101.82640947	    -26.17097171	     73.31560114	    136.23786026	     56.82842686
      4.01666670	    -17.40687890	     15.73215596	     17.49253750	      0.67024793	      0.75119065	     -0.28987140	     89.85793806	    -26.66532089	     13.59249346	     39.71827575	      0.69321469	    -11.01001308	      4.77644378	     -7.49999987	     70.48620712	     21.69862449	    -12.75376430	     83.34660121	      1.45467261	     27.04388391	     -9.64697636	     -7.49999987	    -41.77529693	    -10.28023984	    -25.56647537	     85.80815831	     -0.33183981	     48.08097167	    122.16610821	     53.73074777	    102.10605021	    -26.69972491	     72.55035503	    135.72825426	     56.63896545
      4.03333330	    -17.27909669	     15.92277824	     17.12231076	      0.66299844	      0.75529977	     -0.28685734	     89.45216637	    -26.54643622	     13.65647318	     39.61932277	      0.69148763	    -10.83617974	      4.93379762	     -7.49999987	     69.72896197	     21.55894822	    -12.72150045	     82.61680794	      1.44193532	     27.53220705	     -8.95152068	     -7.49999987	    -41.75321007	    -10.62251039	    -25.25910958	     87.52961378	     -0.30512848	     49.87187867	    122.03879994	     53.87089837	    102.48977923	    -27.20804963	     69.85824777	    134.41417682	     55.97445970
      4.05000000	    -17.33191225	     15.76866716	     16.90791332	      0.66377705	      0.76223313	     -0.28618140	     89.01151056	    -26.48862626	     13.30788292	     39.25824616	      0.68518565	    -10.85235238	      5.26995267	     -7.49999987	     69.23002766	     21.42463440	    -12.32680765	     81.88712335	      1.42919992	     27.60719061	     -8.79010977	     -7.49999987	    -41.16454896	    -10.76670510	    -24.51915965	     87.48354728	     -0.31929742	     50.99611005	    123.90033523	     54.13907445	    101.20118272	    -26.41502598	     69.42310232	    137.22863932	     55.83051419
      4.06666670	    -16.99940358	     15.66994793	     16.74456424	      0.65789082	      0.77390834	     -0.29018162	     87.93103556	    -26.75103095	     12.54440035	     38.57527537	      0.67326557	    -10.91792724	      5.87107141	     -7.49999987	     68.25996359	     21.49275395	    -11.81880945	     80.88436920	      1.41169856	     27.40529222	     -8.79777276	     -7.49999987	    -41.29810031	    -10.49831603	    -23.78427720	     87.61516580	     -2.17545398	     50.91965816	    124.04035033	     54.81732862	    100.24457128	    -24.80381148	     68.78318113	    136.37663596	     56.35062516
      4.08333330	    -16.56627357	     15.30082473	     16.56848879	      0.65959954	      0.79162722	     -0.28901041	     86.14451075	    -27.13809523	     10.99840295	     37.31583174	      0.65128413	    -10.90389215	      7.16287838	     -7.49999987	     66.90200672	     21.62916410	    -10.80874024	     79.50548343	      1.38763246	     27.09358310	     -8.96883133	     -7.49999987	    -41.61028546	    -10.03858674	    -23.06573993	     87.11935191	     -3.11309745	     49.48710993	    122.65412465	     55.37973711	     98.95965106	    -25.15364193	     70.28753867	    135.74015395	     57.11719169
      4.10000000	    -15.91014645	     15.29052700	     16.28797921	      0.66018750	      0.79976873	     -0.28887104	     83.96292499	    -27.54237067	      9.61902030	     35.86684344	      0.62599451	    -10.82220142	      8.85802716	     -7.49999987	     64.97592628	     21.94614171	     -9.93837042	     77.69512029	      1.35603566	     26.53430246	     -9.38240423	     -7.49999987	    -42.11602266	    -10.06759751	    -22.60728008	     86.90616725	     -2.51423650	     48.62544549	    122.57361587	     55.95054646	     98.55855111	    -25.96089222	     71.71683859	    135.74263084	     57.50850228
      4.11666670	    -15.51288736	     15.17517739	     15.88068132	      0.66871374	      0.80504436	     -0.29176961	     81.79247509	    -27.73200112	      8.10445642	     34.31217073	      0.59886035	    -10.54267261	     10.58577143	     -7.49999987	     63.08111139	     22.17842261	     -8.97644511	     75.79627281	      1.32289452	     26.42529322	     -9.36864372	     -7.49999987	    -41.57439405	    -10.29129602	    -21.85351637	     86.50574749	     -2.01902912	     49.18005308	    125.26261301	     56.27668278	     97.61881824	    -25.02973187	     70.19863064	    137.47541318	     57.46842634
      4.13333330	    -15.05727019	     14.91040655	     15.20362166	      0.67356376	      0.81084683	     -0.28647165	     79.40563141	    -27.46490275	      6.83267484	     32.89326513	      0.57409578	    -10.18694278	     11.86997346	     -7.49999987	     61.04635565	     22.22273507	     -7.75213327	     73.92289464	      1.29019790	     26.57741035	     -9.25316727	     -7.49999987	    -40.84296243	    -10.62629556	    -20.83669705	     84.91870705	     -1.87721807	     50.40753902	    126.43354122	     56.51009292	     95.34978706	    -24.76475574	     69.48598277	    137.97020167	     57.59958659
      4.15000000	    -14.75578048	     14.54163775	     14.65285811	      0.66963285	      0.81836815	     -0.28996797	     77.32350160	    -27.15106981	      5.79422278	     31.91387416	      0.55700218	     -9.90943404	     12.90077740	     -7.49999987	     59.32041686	     22.24407339	     -6.56447118	     72.06337975	      1.25774325	     26.80651289	     -9.08646658	     -7.49999987	    -40.44690893	    -10.49592985	    -19.88684174	     84.62174110	     -3.16442470	     49.03351131	    127.57331920	     56.65733542	     94.15943754	    -24.61425646	     69.44661839	    137.97606958	     57.88866707
